#!OML:ASF F:\VICON\USERDATA\INSTALL\rory3\rory3.ASF
:FULLY-SPECIFIED
:DEGREES
1589
root 1.25965 15.0098 -0.844131 7.10068 16.1658 -6.42706
lowerback 22.1675 1.34594 -8.08152
upperback -8.01237 -1.50891 -3.9061
thorax -21.6856 0.113618 0.645728
lowerneck -9.97722 -3.07508 -8.29433
upperneck 25.3558 -5.7553 12.3815
head 10.2931 -2.08958 5.1857
rclavicle 1.11319e-014 -5.725e-014
rhumerus -79.7778 10.7336 -78.3232
rradius 127.375
rwrist -43.9645
rhand 43.1161 10.785
rfingers 7.12502
rthumb 64.9224 3.47954
lclavicle 1.11319e-014 -5.725e-014
lhumerus -78.0174 -20.9803 77.9996
lradius 128.934
lwrist 79.8648
lhand 25.0285 42.3598
lfingers 7.12502
lthumb 49.1873 63.999
rfemur -26.7888 -13.7335 19.4985
rtibia 47.8209
rfoot -21.8743 -9.35703
rtoes -21.9776
lfemur -37.5085 -4.61753 -14.0172
ltibia 54.9493
lfoot -18.6806 -8.97791
ltoes -0.848686
1590
root 1.25883 14.9879 -0.860718 6.7296 15.9866 -6.44529
lowerback 22.3239 1.48331 -8.13577
upperback -7.77084 -1.35171 -3.98783
thorax -21.4705 0.167117 0.523414
lowerneck -10.1004 -3.13194 -8.13965
upperneck 25.2526 -5.87366 12.4595
head 10.2933 -2.11868 5.16791
rclavicle 5.26779e-014 6.36111e-015
rhumerus -79.115 12.1806 -80.3847
rradius 127.014
rwrist -44.1429
rhand 43.637 10.8717
rfingers 7.12502
rthumb 65.3327 4.25874
lclavicle 5.26779e-014 6.36111e-015
lhumerus -77.204 -22.4773 79.8194
lradius 128.806
lwrist 80.0018
lhand 25.1172 42.8717
lfingers 7.12502
lthumb 49.2687 64.4701
rfemur -26.6383 -13.5786 19.3962
rtibia 48.162
rfoot -21.9535 -9.38295
rtoes -22.2874
lfemur -37.2971 -4.36703 -14.0812
ltibia 55.2398
lfoot -18.769 -9.12937
ltoes -0.870057
1591
root 1.25722 14.9679 -0.878388 6.31578 15.7835 -6.44442
lowerback 22.3753 1.66361 -8.18845
upperback -7.40432 -1.11555 -4.0957
thorax -21.0338 0.242771 0.343815
lowerneck -10.2832 -3.23459 -8.04065
upperneck 24.9877 -6.0469 12.6082
head 10.2577 -2.17181 5.17254
rclavicle -8.56762e-014 4.45278e-014
rhumerus -78.644 13.8979 -82.6068
rradius 126.708
rwrist -44.3822
rhand 44.8671 10.6955
rfingers 7.12502
rthumb 66.2854 5.81522
lclavicle -8.56762e-014 4.45278e-014
lhumerus -76.3854 -24.4559 81.8118
lradius 128.75
lwrist 80.1999
lhand 24.8931 43.4631
lfingers 7.12502
lthumb 49.063 65.1643
rfemur -26.46 -13.3754 19.2708
rtibia 48.5208
rfoot -22.031 -9.38255
rtoes -22.4648
lfemur -37.0395 -4.06327 -14.1631
ltibia 55.5631
lfoot -18.8349 -9.36491
ltoes -0.449258
1592
root 1.25516 14.9451 -0.900057 5.79541 15.6988 -6.48232
lowerback 22.4136 1.84769 -8.15732
upperback -6.91225 -0.828531 -4.17027
thorax -20.4326 0.3271 0.142393
lowerneck -10.4167 -3.40665 -8.08138
upperneck 24.53 -6.28829 12.812
head 10.1579 -2.26939 5.2061
rclavicle 2.80286e-014 1.90833e-014
rhumerus -78.3874 16.0095 -84.8807
rradius 126.451
rwrist -44.648
rhand 45.7642 10.5691
rfingers 7.12502
rthumb 66.9646 7.04503
lclavicle 2.80286e-014 1.90833e-014
lhumerus -75.7221 -26.674 83.8749
lradius 128.525
lwrist 80.3833
lhand 24.8982 43.8484
lfingers 7.12502
lthumb 49.0677 65.5472
rfemur -26.1811 -13.29 19.167
rtibia 48.8924
rfoot -22.0844 -9.32748
rtoes -22.3626
lfemur -36.7263 -3.84207 -14.2026
ltibia 55.9047
lfoot -18.9205 -9.58482
ltoes -0.317213
1593
root 1.25417 14.9171 -0.922526 5.1349 15.5412 -6.46864
lowerback 22.5521 2.09576 -8.18734
upperback -6.38703 -0.482539 -4.23294
thorax -19.8562 0.447361 -0.0329781
lowerneck -10.3877 -3.57475 -8.15728
upperneck 24.0108 -6.51139 12.9967
head 10.0035 -2.37103 5.23945
rclavicle 2.52457e-014 1.27222e-014
rhumerus -78.6522 18.5257 -87.2972
rradius 126.312
rwrist -44.6603
rhand 46.4121 10.596
rfingers 7.12502
rthumb 67.4461 8.10335
lclavicle 2.52457e-014 1.27222e-014
lhumerus -75.5412 -29.2432 86.1114
lradius 128.04
lwrist 80.5277
lhand 25.3317 44.0318
lfingers 7.12502
lthumb 49.4655 65.5308
rfemur -25.7522 -13.1821 18.9625
rtibia 49.2873
rfoot -22.1298 -9.30503
rtoes -22.5235
lfemur -36.2192 -3.62852 -14.3059
ltibia 56.2297
lfoot -18.9588 -9.81608
ltoes 0.00374682
1594
root 1.25275 14.8898 -0.940551 4.38808 15.2611 -6.41032
lowerback 22.8428 2.40149 -8.15308
upperback -5.90207 -0.0798452 -4.38529
thorax -19.43 0.582778 -0.370258
lowerneck -10.503 -3.73624 -8.34122
upperneck 23.7557 -6.76051 13.3478
head 9.987 -2.46764 5.36048
rclavicle 4.11484e-014 -8.26944e-014
rhumerus -79.5075 21.2454 -89.9521
rradius 126.279
rwrist -44.5849
rhand 46.9294 10.2349
rfingers 7.12502
rthumb 67.8249 8.59879
lclavicle 4.11484e-014 -8.26944e-014
lhumerus -75.9807 -32.4016 88.5178
lradius 127.479
lwrist 80.6102
lhand 25.5789 43.9085
lfingers 7.12502
lthumb 49.6921 65.2914
rfemur -25.195 -12.9525 18.6805
rtibia 49.6699
rfoot -22.2553 -9.23848
rtoes -22.4599
lfemur -35.5358 -3.32151 -14.4675
ltibia 56.5064
lfoot -19.0513 -9.97099
ltoes -0.0473582
1595
root 1.25182 14.8679 -0.958157 3.65052 15.0371 -6.21414
lowerback 23.0565 2.65627 -8.17713
upperback -5.28346 0.25198 -4.5665
thorax -18.7879 0.689673 -0.670898
lowerneck -10.7989 -3.8891 -8.5651
upperneck 23.3308 -6.95059 13.6566
head 9.9392 -2.54219 5.47187
rclavicle 8.15017e-015 -1.59028e-014
rhumerus -80.3674 24.3333 -92.4864
rradius 126.188
rwrist -44.5501
rhand 46.9411 9.88793
rfingers 7.12502
rthumb 67.8333 8.27145
lclavicle 8.15017e-015 -1.59028e-014
lhumerus -76.3766 -35.6118 90.6691
lradius 127.069
lwrist 80.6858
lhand 25.4516 43.7905
lfingers 7.12502
lthumb 49.5755 65.2333
rfemur -24.5784 -12.8015 18.2494
rtibia 50.0224
rfoot -22.3708 -9.13265
rtoes -22.2861
lfemur -34.7827 -3.08755 -14.7832
ltibia 56.7027
lfoot -19.1914 -10.0415
ltoes -0.184646
